# xmcd
#
# Track frame offsets: 
#        150
#        19185
#        48470
#
# Disc length: 938 seconds
#
# Revision: 0
# Processed by: cddbd v1.5.1PL0 Copyright (c) Steve Scherf et al.
# Submitted via: ExactAudioCopy v0.95b2
#
DISCID=1e03a803
DTITLE=Charlie Robison - Texas Favorites
DYEAR=2001
DGENRE=Country
TTITLE0=Barlight (Recorded Live at Gruene Hall)
TTITLE1=Loving County
TTITLE2=You're Not The Best (Recorded Live at Gruene Hall)
EXTD=
EXTT0=
EXTT1=
EXTT2=
PLAYORDER=
